<svg width="36" height="36" viewBox="0 0 36 36" fill="none" xmlns="http://www.w3.org/2000/svg">
<path d="M0.134052 17.0615C0.134052 16.9274 0.167568 16.7933 0.167568 16.6592C0.167568 16.4916 0.201088 16.324 0.201088 16.1564C0.234608 15.9888 0.234612 15.8212 0.268131 15.6536C0.268131 15.5196 0.301647 15.419 0.301647 15.2849C0.335167 15.0838 0.36869 14.8827 0.402206 14.6816C0.402206 14.581 0.435726 14.514 0.435726 14.4134C0.469246 14.2123 0.536285 13.9777 0.569805 13.7765C0.569805 13.7095 0.603325 13.6425 0.603325 13.5754C0.670364 13.3408 0.703884 13.1397 0.770924 12.905C0.770924 12.838 0.804443 12.8045 0.804443 12.7374C0.871483 12.5028 0.938519 12.2682 1.03908 12.067C1.03908 12.0335 1.0726 11.9665 1.0726 11.933C1.13964 11.6983 1.2402 11.4637 1.34076 11.2626C1.34076 11.229 1.37428 11.1955 1.37428 11.1955V11.162C1.47483 10.9274 1.57539 10.6927 1.67595 10.4581C1.67595 10.4246 1.70947 10.3911 1.70947 10.3575C1.81003 10.1229 1.94411 9.88827 2.04466 9.65363C2.04466 9.62011 2.07819 9.58659 2.07819 9.55307C2.21227 9.31844 2.31282 9.0838 2.4469 8.88268C2.4469 8.84916 2.48042 8.81564 2.48042 8.81564C2.6145 8.58101 2.74857 8.37989 2.88265 8.17877C2.91617 8.14525 2.91618 8.11173 2.9497 8.11173C3.08377 7.91061 3.21785 7.67598 3.38544 7.47486C3.41896 7.44134 3.41897 7.40782 3.45249 7.40782C3.58657 7.2067 3.75416 7.00559 3.92176 6.80447C3.95528 6.77095 3.95528 6.73743 3.9888 6.73743C4.1564 6.53631 4.324 6.3352 4.45807 6.1676C4.49159 6.13408 4.49159 6.10056 4.52511 6.10056C4.69271 5.89944 4.86031 5.73184 5.0279 5.53073L5.06142 5.49721C5.12846 5.43017 5.19551 5.36313 5.26254 5.26257C8.54746 2.01117 13.0391 0 18 0C22.9609 0 27.4525 2.01117 30.7039 5.26257C30.7709 5.32961 30.838 5.39665 30.905 5.49721L30.9385 5.53073C31.1061 5.69832 31.2737 5.89944 31.4413 6.10056C31.4748 6.13408 31.4748 6.1676 31.5084 6.1676C31.676 6.36871 31.8435 6.53631 31.9776 6.73743C32.0111 6.77095 32.0111 6.80447 32.0447 6.80447C32.2123 7.00559 32.3463 7.2067 32.5139 7.40782C32.5475 7.44134 32.5475 7.47486 32.581 7.50838C32.7151 7.7095 32.8827 7.91061 33.0167 8.14525C33.0503 8.17877 33.0503 8.21229 33.0838 8.21229C33.2178 8.41341 33.3519 8.64804 33.486 8.84916C33.486 8.88268 33.5195 8.9162 33.5195 8.9162C33.6536 9.15084 33.7877 9.35195 33.8882 9.58659C33.8882 9.62011 33.9218 9.65363 33.9218 9.68715C34.0558 9.92179 34.1564 10.1564 34.257 10.3911C34.257 10.4246 34.2905 10.4581 34.2905 10.4916C34.391 10.7263 34.4916 10.9609 34.5922 11.1955V11.229C34.5922 11.2626 34.6257 11.2961 34.6257 11.2961C34.7262 11.5307 34.7933 11.7318 34.8938 11.9665C34.9609 12.0335 34.9944 12.067 34.9944 12.1341C35.0614 12.3687 35.1285 12.5698 35.1955 12.8045C35.1955 12.8715 35.229 12.905 35.229 12.9721C35.2961 13.1732 35.3631 13.4078 35.3966 13.6425C35.4301 13.7095 35.4301 13.7765 35.4301 13.8436C35.4637 14.0447 35.5307 14.2458 35.5642 14.4804C35.5977 14.581 35.5977 14.648 35.5977 14.7486C35.6313 14.9497 35.6648 15.1508 35.6983 15.3184C35.7318 15.4525 35.7318 15.5531 35.7318 15.6872C35.7653 15.8547 35.7653 16.0223 35.7989 16.1899C35.7989 16.3575 35.8324 16.5251 35.8324 16.6927C35.8324 16.8268 35.8659 16.9609 35.8659 17.095C35.8659 17.3966 35.8994 17.6983 35.8994 18C35.8994 18.3017 35.8994 18.6034 35.8659 18.905C35.8659 19.0391 35.8324 19.1732 35.8324 19.3073C35.8324 19.4749 35.7989 19.6425 35.7989 19.8101C35.7653 19.9777 35.7653 20.1453 35.7318 20.3128C35.7318 20.4469 35.6983 20.5475 35.6983 20.6816C35.6648 20.8827 35.6313 21.0838 35.5977 21.2514C35.5977 21.352 35.5642 21.419 35.5642 21.5196C35.5307 21.7207 35.4637 21.9218 35.4301 22.1564C35.3966 22.2235 35.3966 22.2905 35.3966 22.3575C35.3296 22.5922 35.2961 22.7933 35.229 22.9944C35.229 23.0615 35.1955 23.095 35.1955 23.162C35.1285 23.3966 35.0614 23.5978 34.9944 23.8324C34.9944 23.8659 34.9609 23.933 34.9609 23.9665C34.8938 24.2011 34.7933 24.4022 34.6927 24.6369C34.6927 24.6704 34.6592 24.7039 34.6592 24.7039V24.7374C34.5586 24.9721 34.4581 25.2067 34.3575 25.4413C34.3575 25.4749 34.324 25.5084 34.324 25.5419C34.2234 25.7765 34.0894 26.0112 33.9888 26.2123C33.9888 26.2458 33.9553 26.2793 33.9553 26.3128C33.8212 26.5475 33.7206 26.7486 33.5866 26.9832C33.553 27.0168 33.553 27.0503 33.5195 27.0838C33.3854 27.3184 33.2514 27.5196 33.1173 27.7207C33.0838 27.7542 33.0838 27.7877 33.0503 27.8212C32.9162 28.0223 32.7821 28.2235 32.6145 28.4581C32.581 28.4916 32.581 28.5251 32.5475 28.5587C32.4134 28.7598 32.2458 28.9609 32.0782 29.162C32.0447 29.1955 32.0447 29.229 32.0111 29.2626C31.8435 29.4637 31.7095 29.6648 31.5419 29.8324C31.5084 29.8659 31.5084 29.8994 31.4748 29.8994C31.3072 30.1006 31.1396 30.2682 30.972 30.4693L30.9385 30.5028L30.905 30.5363C30.838 30.6033 30.7709 30.6704 30.7039 30.7374C27.4525 33.9888 22.9609 36 18 36C13.0391 36 8.54746 33.9888 5.29606 30.7374C5.22902 30.6704 5.16199 30.6033 5.09495 30.5363L5.06142 30.5028L5.0279 30.4693C4.86031 30.3017 4.69271 30.1006 4.52511 29.8994C4.49159 29.8659 4.49159 29.8324 4.45807 29.8324C4.29048 29.6313 4.12288 29.4637 3.9888 29.2626C3.95528 29.229 3.95528 29.1955 3.92176 29.162C3.75416 28.9609 3.62009 28.7598 3.45249 28.5587C3.41897 28.5251 3.41896 28.4916 3.38544 28.4581C3.25137 28.257 3.08377 28.0559 2.9497 27.8212C2.91618 27.7877 2.91617 27.7542 2.88265 27.7207C2.74857 27.5196 2.6145 27.2849 2.48042 27.0838C2.4469 27.0503 2.4469 27.0168 2.4469 26.9832C2.31282 26.7486 2.17875 26.5475 2.07819 26.3128C2.07819 26.2793 2.04466 26.2458 2.04466 26.2123C1.94411 25.9777 1.81003 25.743 1.70947 25.5419C1.70947 25.5084 1.67595 25.4749 1.67595 25.4413C1.57539 25.2067 1.47483 24.9721 1.37428 24.7374V24.7039C1.37428 24.6704 1.34076 24.6369 1.34076 24.6369C1.2402 24.4022 1.17316 24.2011 1.0726 23.9665C1.0726 23.933 1.03908 23.8659 1.03908 23.8324C0.972038 23.5978 0.904999 23.3966 0.804443 23.162C0.804443 23.095 0.770924 23.0615 0.770924 22.9944C0.703884 22.7598 0.636845 22.5587 0.603325 22.324C0.569805 22.257 0.569805 22.1899 0.569805 22.1229C0.536285 21.9218 0.469246 21.7207 0.435726 21.486C0.402206 21.3855 0.402206 21.3184 0.402206 21.2179C0.36869 21.0168 0.335167 20.8156 0.301647 20.648C0.268127 20.514 0.268131 20.4134 0.268131 20.2793C0.234612 20.1117 0.234608 19.9441 0.201088 19.7765C0.201088 19.6089 0.167568 19.4413 0.167568 19.2737C0.167568 19.1397 0.134052 19.0056 0.134052 18.8715C0.134052 18.5698 0.100533 18.2682 0.100533 17.9665C0.100533 17.6648 0.100533 17.3631 0.134052 17.0615ZM30.067 26.3128L29.2625 26.7821C29.5642 27.2514 29.8994 27.6871 30.2346 28.1229L30.2681 28.0894C30.4692 27.8212 30.6704 27.5531 30.8715 27.2849C30.9385 27.1844 31.0056 27.1173 31.0726 27.0168C31.2737 26.7486 31.4413 26.4804 31.6089 26.1788C31.6424 26.1117 31.7095 26.0112 31.743 25.9441C31.8771 25.7095 32.0111 25.4749 32.1452 25.2402C32.2123 25.1397 32.2458 25.0391 32.3128 24.9385C32.4469 24.6369 32.581 24.3352 32.7151 24.067C32.7821 23.8994 32.8491 23.6983 32.9162 23.5307C32.9162 23.4972 32.9497 23.4637 32.9497 23.4302C33.0167 23.229 33.0838 23.0279 33.1508 22.7933C33.1508 22.7598 33.1843 22.7263 33.1843 22.6927C33.2514 22.4916 33.3184 22.2905 33.3519 22.0559C33.3519 22.0223 33.3854 21.9888 33.3854 21.9218C33.4525 21.7207 33.486 21.5196 33.5195 21.3184C33.5195 21.2849 33.553 21.2179 33.553 21.1844C33.5866 20.9832 33.6201 20.7821 33.6536 20.581C33.6536 20.514 33.6871 20.4804 33.6871 20.4134C33.7206 20.2123 33.7542 20.0112 33.7542 19.8101C33.7542 19.743 33.7877 19.676 33.7877 19.6089C33.8212 19.4078 33.8212 19.2067 33.8212 19.0056C33.8212 18.9385 33.8212 18.8715 33.8212 18.8045C33.8212 18.5363 33.8547 18.2682 33.8547 18C33.8212 17.6983 33.8212 17.4302 33.8212 17.162C33.8212 17.095 33.8212 17.0279 33.8212 16.9609C33.8212 16.7598 33.7877 16.5587 33.7877 16.3575C33.7877 16.2905 33.7877 16.2235 33.7542 16.1564C33.7206 15.9553 33.7206 15.7542 33.6871 15.5531C33.6871 15.486 33.6536 15.4525 33.6536 15.3855C33.6201 15.1844 33.5866 14.9832 33.553 14.7821C33.553 14.7486 33.5195 14.6816 33.5195 14.648C33.486 14.4469 33.419 14.2458 33.3854 14.0112C33.3854 13.9777 33.3519 13.9441 33.3519 13.8771C33.2849 13.676 33.2514 13.4413 33.1843 13.2402C33.1843 13.2067 33.1508 13.1732 33.1508 13.1397C33.0838 12.9385 33.0167 12.7374 32.9497 12.5028C32.9497 12.4693 32.9162 12.4358 32.9162 12.4022C32.8491 12.2346 32.7821 12.0335 32.7151 11.8659C32.581 11.5642 32.4469 11.2626 32.3128 10.9609C32.2793 10.8603 32.2123 10.7598 32.1452 10.6592C32.0111 10.4246 31.8771 10.1899 31.743 9.92179C31.7095 9.85475 31.6424 9.75419 31.6089 9.68715C31.4413 9.41899 31.2402 9.11732 31.0726 8.84916C31.0056 8.7486 30.9385 8.68156 30.8715 8.58101C30.6704 8.31285 30.4692 8.04469 30.2681 7.77654L30.2346 7.74302C29.8659 8.17877 29.5642 8.61452 29.2625 9.0838L30.067 9.55307C30.5698 9.85475 30.7374 10.4916 30.4692 11.0279C30.1676 11.5307 29.5307 11.6983 28.9944 11.4302L28.1899 10.9609C28.0223 11.2961 27.8547 11.6648 27.7206 12C27.6201 12.2682 27.5195 12.5363 27.419 12.8045L28.324 13.0391C28.8938 13.2067 29.229 13.7765 29.0949 14.3464C28.9273 14.9162 28.3575 15.2514 27.7877 15.1173L26.8827 14.8827C26.7486 15.5196 26.6815 16.1899 26.6145 16.8603H27.5195C28.1229 16.8603 28.5922 17.3296 28.5922 17.933C28.5922 18.5363 28.1229 19.0056 27.5195 19.0056H26.6145C26.648 19.676 26.7486 20.3464 26.8827 20.9832L27.7877 20.7486C28.3575 20.581 28.9273 20.9497 29.0949 21.5196C29.2625 22.0894 28.8938 22.6592 28.324 22.8268L27.419 23.0615C27.5195 23.3296 27.6201 23.5978 27.7206 23.8659C27.8547 24.2346 28.0223 24.5698 28.1899 24.905L28.9944 24.4358C29.4972 24.1341 30.1676 24.3017 30.4692 24.838C30.7709 25.3408 30.6033 26.0112 30.067 26.3128ZM18 33.7877C22.1229 33.7877 25.8435 32.2123 28.6592 29.6648C28.1564 29.095 27.7206 28.4916 27.2849 27.8547L26.4134 28.3575C25.9106 28.6592 25.2402 28.4916 24.9385 27.9553C24.6368 27.4525 24.8044 26.7821 25.3408 26.4804L26.2458 26.0112C26.0447 25.5754 25.81 25.1397 25.6424 24.7039C25.5084 24.3687 25.3743 24 25.2737 23.6648L24.3016 23.933C23.7318 24.1006 23.162 23.7318 22.9944 23.162C22.8268 22.5922 23.1955 22.0223 23.7653 21.8547L24.7039 21.5866C24.5363 20.7486 24.4357 19.9106 24.3687 19.0391H23.3631C22.7597 19.0391 22.2905 18.5698 22.2905 17.9665C22.2905 17.3631 22.7597 16.8939 23.3631 16.8939H24.3687C24.4357 16.0223 24.5363 15.1844 24.7039 14.3464L23.7318 14.0782C23.162 13.9106 22.8268 13.3408 22.9609 12.7709C23.1285 12.2011 23.6983 11.8659 24.2681 12L25.2402 12.2682C25.3743 11.933 25.5084 11.5978 25.6424 11.229C25.81 10.7933 26.0111 10.3575 26.2458 9.92179L25.3743 9.41899C24.8715 9.11732 24.7039 8.48045 24.972 7.94413C25.2737 7.44134 25.9106 7.27374 26.4469 7.5419L27.3184 8.04469C27.7206 7.40782 28.1899 6.80447 28.6927 6.23464C25.8771 3.65363 22.1229 2.11173 18.0335 2.11173C13.8771 2.14525 10.1564 3.68715 7.34076 6.26816C7.84355 6.83799 8.2793 7.44134 8.71506 8.07821L9.55305 7.57542C10.0558 7.27374 10.7262 7.47486 10.9944 7.97765C11.2961 8.48045 11.0949 9.15084 10.5922 9.41899L9.72064 9.92179C9.92176 10.3575 10.1564 10.7933 10.324 11.229C10.4581 11.5642 10.5922 11.933 10.6927 12.2682L11.6648 12C12.2346 11.8324 12.8044 12.2011 12.972 12.7709C13.1396 13.3408 12.7709 13.9106 12.2011 14.0782L11.229 14.3464C11.3966 15.1844 11.4972 16.0223 11.5642 16.8939H12.5698C13.1732 16.8939 13.6424 17.3631 13.6424 17.9665C13.6424 18.5698 13.1732 19.0391 12.5698 19.0391H11.5642C11.4972 19.9106 11.3966 20.7486 11.229 21.5866L12.2011 21.8547C12.7709 22.0223 13.1061 22.5922 12.972 23.162C12.8044 23.7318 12.2346 24.067 11.6648 23.933L10.6927 23.6648C10.5586 24.0335 10.4581 24.3687 10.324 24.7039C10.1564 25.1397 9.95528 25.6089 9.72064 26.0112L10.6257 26.514C11.1285 26.8156 11.2961 27.4525 11.0279 27.9553C10.7262 28.4581 10.0894 28.6257 9.58656 28.3575L8.71506 27.8547C8.31282 28.4916 7.84355 29.095 7.34076 29.6648C10.1564 32.2458 13.9106 33.7877 18 33.7877ZM2.2793 18.838C2.2793 18.905 2.2793 18.9721 2.2793 19.0391C2.2793 19.2402 2.31282 19.4413 2.31282 19.6425C2.31282 19.7095 2.31282 19.7765 2.34634 19.8436C2.37986 20.0447 2.37986 20.2458 2.41338 20.4469C2.41338 20.514 2.4469 20.5475 2.4469 20.6145C2.48042 20.8156 2.51394 21.0168 2.54746 21.2179C2.54746 21.2514 2.58098 21.3184 2.58098 21.352C2.6145 21.5531 2.68154 21.7542 2.71506 21.9553C2.71506 21.9888 2.74858 22.0223 2.74858 22.0894C2.81562 22.2905 2.84914 22.5251 2.91618 22.7263C2.91618 22.7598 2.9497 22.7933 2.9497 22.8268C3.01673 23.0279 3.08377 23.2626 3.15081 23.4637C3.15081 23.4972 3.18433 23.5307 3.18433 23.5642C3.25137 23.7318 3.31841 23.933 3.38544 24.1006C3.51952 24.4022 3.65361 24.7039 3.78768 24.9721C3.85472 25.0726 3.88824 25.1732 3.95528 25.2737C4.08936 25.5084 4.22344 25.743 4.35751 25.9777C4.39103 26.0447 4.45807 26.1452 4.49159 26.2123C4.65919 26.4804 4.86031 26.7821 5.0279 27.0503C5.09494 27.1508 5.16198 27.2179 5.22902 27.3184C5.43014 27.5866 5.63126 27.8547 5.83237 28.1229L5.86589 28.1564C6.23461 27.7207 6.53629 27.2849 6.83796 26.8156L6.03349 26.3464C5.5307 26.0447 5.3631 25.3743 5.63126 24.8715C5.93293 24.3687 6.56981 24.2011 7.0726 24.4693L7.87707 24.9385C8.04466 24.6034 8.21226 24.2346 8.34634 23.8994C8.4469 23.6313 8.54746 23.3631 8.64802 23.095L7.74299 22.8603C7.17316 22.6927 6.83796 22.1229 6.97204 21.5531C7.13964 20.9832 7.70947 20.648 8.2793 20.7821L9.18433 21.0168C9.31841 20.3799 9.38545 19.7095 9.45249 19.0391H8.54746C7.94411 19.0391 7.47483 18.5698 7.47483 17.9665C7.47483 17.3631 7.94411 16.8939 8.54746 16.8939H9.45249C9.41897 16.2235 9.31841 15.5531 9.18433 14.9162L8.2793 15.1508C7.70947 15.3184 7.13964 14.9497 6.97204 14.3799C6.80444 13.8101 7.17316 13.2402 7.74299 13.0726L8.64802 12.838C8.54746 12.5698 8.4469 12.3017 8.34634 12.0335C8.21226 11.6648 8.04466 11.3296 7.87707 10.9944L7.0726 11.4637C6.56981 11.7654 5.89941 11.5642 5.63126 11.0615C5.32958 10.5587 5.5307 9.88827 6.03349 9.62011L6.83796 9.15084C6.53629 8.68156 6.20109 8.24581 5.86589 7.81006L5.83237 7.84358C5.63126 8.11173 5.43014 8.37989 5.22902 8.64804C5.16198 8.7486 5.09494 8.81564 5.0279 8.9162C4.82679 9.18436 4.65919 9.45251 4.49159 9.75419C4.45807 9.82123 4.39103 9.88827 4.35751 9.98883C4.22344 10.2235 4.08936 10.4581 3.95528 10.7263C3.88824 10.8268 3.85472 10.9274 3.78768 11.0279C3.65361 11.3296 3.51952 11.6313 3.38544 11.933C3.31841 12.1006 3.25137 12.3017 3.18433 12.4693C3.18433 12.5028 3.15081 12.5363 3.15081 12.5698C3.08377 12.7709 3.01673 12.9721 2.9497 13.2067C2.9497 13.2402 2.91618 13.2737 2.91618 13.3073C2.84914 13.5084 2.7821 13.7095 2.74858 13.9441C2.74858 13.9777 2.71506 14.0112 2.71506 14.0782C2.64802 14.2793 2.6145 14.4804 2.58098 14.7151C2.58098 14.7486 2.54746 14.8156 2.54746 14.8492C2.51394 15.0503 2.48042 15.2514 2.4469 15.4525C2.4469 15.5196 2.41338 15.5531 2.41338 15.6201C2.37986 15.8212 2.34634 16.0223 2.34634 16.2235C2.34634 16.2905 2.31282 16.3575 2.31282 16.4246C2.2793 16.6257 2.2793 16.8268 2.2793 17.0279C2.2793 17.095 2.2793 17.162 2.2793 17.229C2.2793 17.4972 2.24578 17.7654 2.24578 18.0335C2.24578 18.3017 2.24578 18.5698 2.2793 18.838Z" fill="#8B98AB"/>
</svg>
