<svg width="57" height="57" viewBox="0 0 57 57" fill="none" xmlns="http://www.w3.org/2000/svg">
<rect width="57" height="57" rx="16" fill="#FEFEFE"/>
<path d="M11.1341 29.0615C11.1341 28.9274 11.1676 28.7933 11.1676 28.6592C11.1676 28.4916 11.2011 28.324 11.2011 28.1564C11.2346 27.9888 11.2346 27.8212 11.2681 27.6536C11.2681 27.5196 11.3016 27.419 11.3016 27.2849C11.3352 27.0838 11.3687 26.8827 11.4022 26.6816C11.4022 26.581 11.4357 26.514 11.4357 26.4134C11.4692 26.2123 11.5363 25.9777 11.5698 25.7765C11.5698 25.7095 11.6033 25.6425 11.6033 25.5754C11.6704 25.3408 11.7039 25.1397 11.7709 24.905C11.7709 24.838 11.8044 24.8045 11.8044 24.7374C11.8715 24.5028 11.9385 24.2682 12.0391 24.067C12.0391 24.0335 12.0726 23.9665 12.0726 23.933C12.1396 23.6983 12.2402 23.4637 12.3408 23.2626C12.3408 23.229 12.3743 23.1955 12.3743 23.1955V23.162C12.4748 22.9274 12.5754 22.6927 12.6759 22.4581C12.6759 22.4246 12.7095 22.3911 12.7095 22.3575C12.81 22.1229 12.9441 21.8883 13.0447 21.6536C13.0447 21.6201 13.0782 21.5866 13.0782 21.5531C13.2123 21.3184 13.3128 21.0838 13.4469 20.8827C13.4469 20.8492 13.4804 20.8156 13.4804 20.8156C13.6145 20.581 13.7486 20.3799 13.8827 20.1788C13.9162 20.1453 13.9162 20.1117 13.9497 20.1117C14.0838 19.9106 14.2178 19.676 14.3854 19.4749C14.419 19.4413 14.419 19.4078 14.4525 19.4078C14.5866 19.2067 14.7542 19.0056 14.9218 18.8045C14.9553 18.7709 14.9553 18.7374 14.9888 18.7374C15.1564 18.5363 15.324 18.3352 15.4581 18.1676C15.4916 18.1341 15.4916 18.1006 15.5251 18.1006C15.6927 17.8994 15.8603 17.7318 16.0279 17.5307L16.0614 17.4972C16.1285 17.4302 16.1955 17.3631 16.2625 17.2626C19.5475 14.0112 24.0391 12 29 12C33.9609 12 38.4525 14.0112 41.7039 17.2626C41.7709 17.3296 41.838 17.3966 41.905 17.4972L41.9385 17.5307C42.1061 17.6983 42.2737 17.8994 42.4413 18.1006C42.4748 18.1341 42.4748 18.1676 42.5084 18.1676C42.676 18.3687 42.8435 18.5363 42.9776 18.7374C43.0111 18.7709 43.0111 18.8045 43.0447 18.8045C43.2123 19.0056 43.3463 19.2067 43.5139 19.4078C43.5475 19.4413 43.5475 19.4749 43.581 19.5084C43.7151 19.7095 43.8827 19.9106 44.0167 20.1453C44.0503 20.1788 44.0503 20.2123 44.0838 20.2123C44.2178 20.4134 44.3519 20.648 44.486 20.8492C44.486 20.8827 44.5195 20.9162 44.5195 20.9162C44.6536 21.1508 44.7877 21.352 44.8882 21.5866C44.8882 21.6201 44.9218 21.6536 44.9218 21.6872C45.0558 21.9218 45.1564 22.1564 45.257 22.3911C45.257 22.4246 45.2905 22.4581 45.2905 22.4916C45.391 22.7263 45.4916 22.9609 45.5922 23.1955V23.229C45.5922 23.2626 45.6257 23.2961 45.6257 23.2961C45.7262 23.5307 45.7933 23.7318 45.8938 23.9665C45.9609 24.0335 45.9944 24.067 45.9944 24.1341C46.0614 24.3687 46.1285 24.5698 46.1955 24.8045C46.1955 24.8715 46.229 24.905 46.229 24.9721C46.2961 25.1732 46.3631 25.4078 46.3966 25.6425C46.4301 25.7095 46.4301 25.7765 46.4301 25.8436C46.4637 26.0447 46.5307 26.2458 46.5642 26.4804C46.5977 26.581 46.5977 26.648 46.5977 26.7486C46.6313 26.9497 46.6648 27.1508 46.6983 27.3184C46.7318 27.4525 46.7318 27.5531 46.7318 27.6872C46.7653 27.8547 46.7653 28.0223 46.7989 28.1899C46.7989 28.3575 46.8324 28.5251 46.8324 28.6927C46.8324 28.8268 46.8659 28.9609 46.8659 29.095C46.8659 29.3966 46.8994 29.6983 46.8994 30C46.8994 30.3017 46.8994 30.6034 46.8659 30.905C46.8659 31.0391 46.8324 31.1732 46.8324 31.3073C46.8324 31.4749 46.7989 31.6425 46.7989 31.8101C46.7653 31.9777 46.7653 32.1453 46.7318 32.3128C46.7318 32.4469 46.6983 32.5475 46.6983 32.6816C46.6648 32.8827 46.6313 33.0838 46.5977 33.2514C46.5977 33.352 46.5642 33.419 46.5642 33.5196C46.5307 33.7207 46.4637 33.9218 46.4301 34.1564C46.3966 34.2235 46.3966 34.2905 46.3966 34.3575C46.3296 34.5922 46.2961 34.7933 46.229 34.9944C46.229 35.0615 46.1955 35.095 46.1955 35.162C46.1285 35.3966 46.0614 35.5978 45.9944 35.8324C45.9944 35.8659 45.9609 35.933 45.9609 35.9665C45.8938 36.2011 45.7933 36.4022 45.6927 36.6369C45.6927 36.6704 45.6592 36.7039 45.6592 36.7039V36.7374C45.5586 36.9721 45.4581 37.2067 45.3575 37.4413C45.3575 37.4749 45.324 37.5084 45.324 37.5419C45.2234 37.7765 45.0894 38.0112 44.9888 38.2123C44.9888 38.2458 44.9553 38.2793 44.9553 38.3128C44.8212 38.5475 44.7206 38.7486 44.5866 38.9832C44.553 39.0168 44.553 39.0503 44.5195 39.0838C44.3854 39.3184 44.2514 39.5196 44.1173 39.7207C44.0838 39.7542 44.0838 39.7877 44.0503 39.8212C43.9162 40.0223 43.7821 40.2235 43.6145 40.4581C43.581 40.4916 43.581 40.5251 43.5475 40.5587C43.4134 40.7598 43.2458 40.9609 43.0782 41.162C43.0447 41.1955 43.0447 41.229 43.0111 41.2626C42.8435 41.4637 42.7095 41.6648 42.5419 41.8324C42.5084 41.8659 42.5084 41.8994 42.4748 41.8994C42.3072 42.1006 42.1396 42.2682 41.972 42.4693L41.9385 42.5028L41.905 42.5363C41.838 42.6033 41.7709 42.6704 41.7039 42.7374C38.4525 45.9888 33.9609 48 29 48C24.0391 48 19.5475 45.9888 16.2961 42.7374C16.229 42.6704 16.162 42.6033 16.0949 42.5363L16.0614 42.5028L16.0279 42.4693C15.8603 42.3017 15.6927 42.1006 15.5251 41.8994C15.4916 41.8659 15.4916 41.8324 15.4581 41.8324C15.2905 41.6313 15.1229 41.4637 14.9888 41.2626C14.9553 41.229 14.9553 41.1955 14.9218 41.162C14.7542 40.9609 14.6201 40.7598 14.4525 40.5587C14.419 40.5251 14.419 40.4916 14.3854 40.4581C14.2514 40.257 14.0838 40.0559 13.9497 39.8212C13.9162 39.7877 13.9162 39.7542 13.8827 39.7207C13.7486 39.5196 13.6145 39.2849 13.4804 39.0838C13.4469 39.0503 13.4469 39.0168 13.4469 38.9832C13.3128 38.7486 13.1787 38.5475 13.0782 38.3128C13.0782 38.2793 13.0447 38.2458 13.0447 38.2123C12.9441 37.9777 12.81 37.743 12.7095 37.5419C12.7095 37.5084 12.6759 37.4749 12.6759 37.4413C12.5754 37.2067 12.4748 36.9721 12.3743 36.7374V36.7039C12.3743 36.6704 12.3408 36.6369 12.3408 36.6369C12.2402 36.4022 12.1732 36.2011 12.0726 35.9665C12.0726 35.933 12.0391 35.8659 12.0391 35.8324C11.972 35.5978 11.905 35.3966 11.8044 35.162C11.8044 35.095 11.7709 35.0615 11.7709 34.9944C11.7039 34.7598 11.6368 34.5587 11.6033 34.324C11.5698 34.257 11.5698 34.1899 11.5698 34.1229C11.5363 33.9218 11.4692 33.7207 11.4357 33.486C11.4022 33.3855 11.4022 33.3184 11.4022 33.2179C11.3687 33.0168 11.3352 32.8156 11.3016 32.648C11.2681 32.514 11.2681 32.4134 11.2681 32.2793C11.2346 32.1117 11.2346 31.9441 11.2011 31.7765C11.2011 31.6089 11.1676 31.4413 11.1676 31.2737C11.1676 31.1397 11.1341 31.0056 11.1341 30.8715C11.1341 30.5698 11.1005 30.2682 11.1005 29.9665C11.1005 29.6648 11.1005 29.3631 11.1341 29.0615ZM41.067 38.3128L40.2625 38.7821C40.5642 39.2514 40.8994 39.6871 41.2346 40.1229L41.2681 40.0894C41.4692 39.8212 41.6704 39.5531 41.8715 39.2849C41.9385 39.1844 42.0056 39.1173 42.0726 39.0168C42.2737 38.7486 42.4413 38.4804 42.6089 38.1788C42.6424 38.1117 42.7095 38.0112 42.743 37.9441C42.8771 37.7095 43.0111 37.4749 43.1452 37.2402C43.2123 37.1397 43.2458 37.0391 43.3128 36.9385C43.4469 36.6369 43.581 36.3352 43.7151 36.067C43.7821 35.8994 43.8491 35.6983 43.9162 35.5307C43.9162 35.4972 43.9497 35.4637 43.9497 35.4302C44.0167 35.229 44.0838 35.0279 44.1508 34.7933C44.1508 34.7598 44.1843 34.7263 44.1843 34.6927C44.2514 34.4916 44.3184 34.2905 44.3519 34.0559C44.3519 34.0223 44.3854 33.9888 44.3854 33.9218C44.4525 33.7207 44.486 33.5196 44.5195 33.3184C44.5195 33.2849 44.553 33.2179 44.553 33.1844C44.5866 32.9832 44.6201 32.7821 44.6536 32.581C44.6536 32.514 44.6871 32.4804 44.6871 32.4134C44.7206 32.2123 44.7542 32.0112 44.7542 31.8101C44.7542 31.743 44.7877 31.676 44.7877 31.6089C44.8212 31.4078 44.8212 31.2067 44.8212 31.0056C44.8212 30.9385 44.8212 30.8715 44.8212 30.8045C44.8212 30.5363 44.8547 30.2682 44.8547 30C44.8212 29.6983 44.8212 29.4302 44.8212 29.162C44.8212 29.095 44.8212 29.0279 44.8212 28.9609C44.8212 28.7598 44.7877 28.5587 44.7877 28.3575C44.7877 28.2905 44.7877 28.2235 44.7542 28.1564C44.7206 27.9553 44.7206 27.7542 44.6871 27.5531C44.6871 27.486 44.6536 27.4525 44.6536 27.3855C44.6201 27.1844 44.5866 26.9832 44.553 26.7821C44.553 26.7486 44.5195 26.6816 44.5195 26.648C44.486 26.4469 44.419 26.2458 44.3854 26.0112C44.3854 25.9777 44.3519 25.9441 44.3519 25.8771C44.2849 25.676 44.2514 25.4413 44.1843 25.2402C44.1843 25.2067 44.1508 25.1732 44.1508 25.1397C44.0838 24.9385 44.0167 24.7374 43.9497 24.5028C43.9497 24.4693 43.9162 24.4358 43.9162 24.4022C43.8491 24.2346 43.7821 24.0335 43.7151 23.8659C43.581 23.5642 43.4469 23.2626 43.3128 22.9609C43.2793 22.8603 43.2123 22.7598 43.1452 22.6592C43.0111 22.4246 42.8771 22.1899 42.743 21.9218C42.7095 21.8547 42.6424 21.7542 42.6089 21.6872C42.4413 21.419 42.2402 21.1173 42.0726 20.8492C42.0056 20.7486 41.9385 20.6816 41.8715 20.581C41.6704 20.3128 41.4692 20.0447 41.2681 19.7765L41.2346 19.743C40.8659 20.1788 40.5642 20.6145 40.2625 21.0838L41.067 21.5531C41.5698 21.8547 41.7374 22.4916 41.4692 23.0279C41.1676 23.5307 40.5307 23.6983 39.9944 23.4302L39.1899 22.9609C39.0223 23.2961 38.8547 23.6648 38.7206 24C38.6201 24.2682 38.5195 24.5363 38.419 24.8045L39.324 25.0391C39.8938 25.2067 40.229 25.7765 40.0949 26.3464C39.9273 26.9162 39.3575 27.2514 38.7877 27.1173L37.8827 26.8827C37.7486 27.5196 37.6815 28.1899 37.6145 28.8603H38.5195C39.1229 28.8603 39.5922 29.3296 39.5922 29.933C39.5922 30.5363 39.1229 31.0056 38.5195 31.0056H37.6145C37.648 31.676 37.7486 32.3464 37.8827 32.9832L38.7877 32.7486C39.3575 32.581 39.9273 32.9497 40.0949 33.5196C40.2625 34.0894 39.8938 34.6592 39.324 34.8268L38.419 35.0615C38.5195 35.3296 38.6201 35.5978 38.7206 35.8659C38.8547 36.2346 39.0223 36.5698 39.1899 36.905L39.9944 36.4358C40.4972 36.1341 41.1676 36.3017 41.4692 36.838C41.7709 37.3408 41.6033 38.0112 41.067 38.3128ZM29 45.7877C33.1229 45.7877 36.8435 44.2123 39.6592 41.6648C39.1564 41.095 38.7206 40.4916 38.2849 39.8547L37.4134 40.3575C36.9106 40.6592 36.2402 40.4916 35.9385 39.9553C35.6368 39.4525 35.8044 38.7821 36.3408 38.4804L37.2458 38.0112C37.0447 37.5754 36.81 37.1397 36.6424 36.7039C36.5084 36.3687 36.3743 36 36.2737 35.6648L35.3016 35.933C34.7318 36.1006 34.162 35.7318 33.9944 35.162C33.8268 34.5922 34.1955 34.0223 34.7653 33.8547L35.7039 33.5866C35.5363 32.7486 35.4357 31.9106 35.3687 31.0391H34.3631C33.7597 31.0391 33.2905 30.5698 33.2905 29.9665C33.2905 29.3631 33.7597 28.8939 34.3631 28.8939H35.3687C35.4357 28.0223 35.5363 27.1844 35.7039 26.3464L34.7318 26.0782C34.162 25.9106 33.8268 25.3408 33.9609 24.7709C34.1285 24.2011 34.6983 23.8659 35.2681 24L36.2402 24.2682C36.3743 23.933 36.5084 23.5978 36.6424 23.229C36.81 22.7933 37.0111 22.3575 37.2458 21.9218L36.3743 21.419C35.8715 21.1173 35.7039 20.4804 35.972 19.9441C36.2737 19.4413 36.9106 19.2737 37.4469 19.5419L38.3184 20.0447C38.7206 19.4078 39.1899 18.8045 39.6927 18.2346C36.8771 15.6536 33.1229 14.1117 29.0335 14.1117C24.8771 14.1453 21.1564 15.6872 18.3408 18.2682C18.8435 18.838 19.2793 19.4413 19.7151 20.0782L20.553 19.5754C21.0558 19.2737 21.7262 19.4749 21.9944 19.9777C22.2961 20.4804 22.0949 21.1508 21.5922 21.419L20.7206 21.9218C20.9218 22.3575 21.1564 22.7933 21.324 23.229C21.4581 23.5642 21.5922 23.933 21.6927 24.2682L22.6648 24C23.2346 23.8324 23.8044 24.2011 23.972 24.7709C24.1396 25.3408 23.7709 25.9106 23.2011 26.0782L22.229 26.3464C22.3966 27.1844 22.4972 28.0223 22.5642 28.8939H23.5698C24.1732 28.8939 24.6424 29.3631 24.6424 29.9665C24.6424 30.5698 24.1732 31.0391 23.5698 31.0391H22.5642C22.4972 31.9106 22.3966 32.7486 22.229 33.5866L23.2011 33.8547C23.7709 34.0223 24.1061 34.5922 23.972 35.162C23.8044 35.7318 23.2346 36.067 22.6648 35.933L21.6927 35.6648C21.5586 36.0335 21.4581 36.3687 21.324 36.7039C21.1564 37.1397 20.9553 37.6089 20.7206 38.0112L21.6257 38.514C22.1285 38.8156 22.2961 39.4525 22.0279 39.9553C21.7262 40.4581 21.0894 40.6257 20.5866 40.3575L19.7151 39.8547C19.3128 40.4916 18.8435 41.095 18.3408 41.6648C21.1564 44.2458 24.9106 45.7877 29 45.7877ZM13.2793 30.838C13.2793 30.905 13.2793 30.9721 13.2793 31.0391C13.2793 31.2402 13.3128 31.4413 13.3128 31.6425C13.3128 31.7095 13.3128 31.7765 13.3463 31.8436C13.3799 32.0447 13.3799 32.2458 13.4134 32.4469C13.4134 32.514 13.4469 32.5475 13.4469 32.6145C13.4804 32.8156 13.5139 33.0168 13.5475 33.2179C13.5475 33.2514 13.581 33.3184 13.581 33.352C13.6145 33.5531 13.6815 33.7542 13.7151 33.9553C13.7151 33.9888 13.7486 34.0223 13.7486 34.0894C13.8156 34.2905 13.8491 34.5251 13.9162 34.7263C13.9162 34.7598 13.9497 34.7933 13.9497 34.8268C14.0167 35.0279 14.0838 35.2626 14.1508 35.4637C14.1508 35.4972 14.1843 35.5307 14.1843 35.5642C14.2514 35.7318 14.3184 35.933 14.3854 36.1006C14.5195 36.4022 14.6536 36.7039 14.7877 36.9721C14.8547 37.0726 14.8882 37.1732 14.9553 37.2737C15.0894 37.5084 15.2234 37.743 15.3575 37.9777C15.391 38.0447 15.4581 38.1452 15.4916 38.2123C15.6592 38.4804 15.8603 38.7821 16.0279 39.0503C16.0949 39.1508 16.162 39.2179 16.229 39.3184C16.4301 39.5866 16.6313 39.8547 16.8324 40.1229L16.8659 40.1564C17.2346 39.7207 17.5363 39.2849 17.838 38.8156L17.0335 38.3464C16.5307 38.0447 16.3631 37.3743 16.6313 36.8715C16.9329 36.3687 17.5698 36.2011 18.0726 36.4693L18.8771 36.9385C19.0447 36.6034 19.2123 36.2346 19.3463 35.8994C19.4469 35.6313 19.5475 35.3631 19.648 35.095L18.743 34.8603C18.1732 34.6927 17.838 34.1229 17.972 33.5531C18.1396 32.9832 18.7095 32.648 19.2793 32.7821L20.1843 33.0168C20.3184 32.3799 20.3854 31.7095 20.4525 31.0391H19.5475C18.9441 31.0391 18.4748 30.5698 18.4748 29.9665C18.4748 29.3631 18.9441 28.8939 19.5475 28.8939H20.4525C20.419 28.2235 20.3184 27.5531 20.1843 26.9162L19.2793 27.1508C18.7095 27.3184 18.1396 26.9497 17.972 26.3799C17.8044 25.8101 18.1732 25.2402 18.743 25.0726L19.648 24.838C19.5475 24.5698 19.4469 24.3017 19.3463 24.0335C19.2123 23.6648 19.0447 23.3296 18.8771 22.9944L18.0726 23.4637C17.5698 23.7654 16.8994 23.5642 16.6313 23.0615C16.3296 22.5587 16.5307 21.8883 17.0335 21.6201L17.838 21.1508C17.5363 20.6816 17.2011 20.2458 16.8659 19.8101L16.8324 19.8436C16.6313 20.1117 16.4301 20.3799 16.229 20.648C16.162 20.7486 16.0949 20.8156 16.0279 20.9162C15.8268 21.1844 15.6592 21.4525 15.4916 21.7542C15.4581 21.8212 15.391 21.8883 15.3575 21.9888C15.2234 22.2235 15.0894 22.4581 14.9553 22.7263C14.8882 22.8268 14.8547 22.9274 14.7877 23.0279C14.6536 23.3296 14.5195 23.6313 14.3854 23.933C14.3184 24.1006 14.2514 24.3017 14.1843 24.4693C14.1843 24.5028 14.1508 24.5363 14.1508 24.5698C14.0838 24.7709 14.0167 24.9721 13.9497 25.2067C13.9497 25.2402 13.9162 25.2737 13.9162 25.3073C13.8491 25.5084 13.7821 25.7095 13.7486 25.9441C13.7486 25.9777 13.7151 26.0112 13.7151 26.0782C13.648 26.2793 13.6145 26.4804 13.581 26.7151C13.581 26.7486 13.5475 26.8156 13.5475 26.8492C13.5139 27.0503 13.4804 27.2514 13.4469 27.4525C13.4469 27.5196 13.4134 27.5531 13.4134 27.6201C13.3799 27.8212 13.3463 28.0223 13.3463 28.2235C13.3463 28.2905 13.3128 28.3575 13.3128 28.4246C13.2793 28.6257 13.2793 28.8268 13.2793 29.0279C13.2793 29.095 13.2793 29.162 13.2793 29.229C13.2793 29.4972 13.2458 29.7654 13.2458 30.0335C13.2458 30.3017 13.2458 30.5698 13.2793 30.838Z" fill="#8B98AB"/>
</svg>
