<svg width="36" height="36" viewBox="0 0 36 36" fill="none" xmlns="http://www.w3.org/2000/svg">
<path d="M7.10156 31.7109V34.9453C7.10156 35.5278 7.57378 36 8.15625 36H22.2188C22.8012 36 23.2734 35.5278 23.2734 34.9453V31.7109H7.10156Z" fill="#8B98AB"/>
<path d="M27.8436 0H19.4061C17.271 0 15.3296 0.82793 13.8843 2.17969H19.4061C25.0278 2.17969 29.6014 6.7533 29.6014 12.375V13.4297C29.6014 13.7635 29.5787 14.092 29.5356 14.4141H30.6561C33.5685 14.4141 35.9295 12.053 35.9295 9.14062V8.08594C35.9295 3.62018 32.3093 0 27.8436 0Z" fill="#8B98AB"/>
<path d="M13.4293 12.7266C16.1432 12.7266 18.3511 14.9344 18.3511 17.6484C18.3511 18.0105 18.3107 18.3631 18.2362 18.7031H22.2188C25.1312 18.7031 27.4922 16.3421 27.4922 13.4297V12.375C27.4922 7.90924 23.872 4.28906 19.4062 4.28906H10.9688C6.50299 4.28906 2.88281 7.90924 2.88281 12.375V13.4238C3.89756 12.9759 5.01884 12.7266 6.19741 12.7266H6.27806H13.4293Z" fill="#8B98AB"/>
<path d="M15.1875 26.0859C14.0244 26.0859 13.0781 27.0322 13.0781 28.1953V29.6016H17.2969V28.1953C17.2969 27.0322 16.3506 26.0859 15.1875 26.0859Z" fill="#8B98AB"/>
<path d="M30.6563 16.5234H29.6016V19.2516C29.6016 21.3176 29.2931 23.3584 28.6938 25.3125H30.6563H32.7785C34.822 22.2652 35.9297 18.6621 35.9297 14.9625V14.3018C34.5886 15.6717 32.7202 16.5234 30.6563 16.5234Z" fill="#8B98AB"/>
<path d="M30.6564 27.4219H27.9213C27.4198 28.586 26.8091 29.7086 26.093 30.7764L25.4663 31.7109H30.6564C31.2388 31.7109 31.711 31.2387 31.711 30.6562V27.4219H30.6564Z" fill="#8B98AB"/>
<path d="M22.2188 20.8125H17.1945C16.3245 21.846 15.0383 22.5177 13.5961 22.5661C13.4268 22.5825 13.2541 22.5881 13.0782 22.5823L7.80491 22.5723C7.22265 22.5712 6.75121 22.0989 6.75121 21.5166C6.75121 20.9336 7.22385 20.4609 7.80688 20.4609H13.4292C14.9825 20.4609 16.2417 19.2017 16.2417 17.6484C16.2417 16.0952 14.9825 14.8359 13.4292 14.8359H6.27807H6.278C3.05284 14.8359 0.318455 17.2995 0.0864241 20.5163C-0.0352868 22.2034 0.536635 23.8451 1.66445 25.0853L5.45774 29.2564C5.65764 29.4762 5.94092 29.6015 6.23799 29.6015H10.9688V28.1952C10.9688 25.869 12.8613 23.9765 15.1875 23.9765C17.5137 23.9765 19.4063 25.869 19.4063 28.1952V29.6015H24.341C26.3845 26.5543 27.4922 22.9512 27.4922 19.2516V18.5909C26.1511 19.9608 24.2827 20.8125 22.2188 20.8125Z" fill="#8B98AB"/>
</svg>
