<svg width="13" height="14" viewBox="0 0 13 14" fill="none" xmlns="http://www.w3.org/2000/svg">
<path d="M0.8125 12.4062V5.5H12.1875V12.4062C12.1875 12.7448 12.069 13.0326 11.832 13.2695C11.5951 13.5065 11.3073 13.625 10.9688 13.625H2.03125C1.69271 13.625 1.40495 13.5065 1.16797 13.2695C0.93099 13.0326 0.8125 12.7448 0.8125 12.4062ZM2.4375 7.53125V9.96875C2.4375 10.0872 2.47135 10.1888 2.53906 10.2734C2.6237 10.3411 2.72526 10.375 2.84375 10.375H5.28125C5.39974 10.375 5.49284 10.3411 5.56055 10.2734C5.64518 10.1888 5.6875 10.0872 5.6875 9.96875V7.53125C5.6875 7.41276 5.64518 7.31966 5.56055 7.25195C5.49284 7.16732 5.39974 7.125 5.28125 7.125H2.84375C2.72526 7.125 2.6237 7.16732 2.53906 7.25195C2.47135 7.31966 2.4375 7.41276 2.4375 7.53125ZM10.9688 2.25C11.3073 2.25 11.5951 2.36849 11.832 2.60547C12.069 2.84245 12.1875 3.13021 12.1875 3.46875V4.6875H0.8125V3.46875C0.8125 3.13021 0.93099 2.84245 1.16797 2.60547C1.40495 2.36849 1.69271 2.25 2.03125 2.25H3.25V1.03125C3.25 0.91276 3.28385 0.819661 3.35156 0.751953C3.4362 0.667318 3.53776 0.625 3.65625 0.625H4.46875C4.58724 0.625 4.68034 0.667318 4.74805 0.751953C4.83268 0.819661 4.875 0.91276 4.875 1.03125V2.25H8.125V1.03125C8.125 0.91276 8.15885 0.819661 8.22656 0.751953C8.3112 0.667318 8.41276 0.625 8.53125 0.625H9.34375C9.46224 0.625 9.55534 0.667318 9.62305 0.751953C9.70768 0.819661 9.75 0.91276 9.75 1.03125V2.25H10.9688Z" fill="#0D2950"/>
</svg>
