<svg width="10" height="10" viewBox="0 0 10 10" fill="none" xmlns="http://www.w3.org/2000/svg">
<path d="M6.67578 5.125L9.21484 2.58594C9.54492 2.28125 9.54492 1.77344 9.21484 1.46875L8.65625 0.910156C8.35156 0.580078 7.84375 0.580078 7.53906 0.910156L5 3.44922L2.43555 0.910156C2.13086 0.580078 1.62305 0.580078 1.31836 0.910156L0.759766 1.46875C0.429688 1.77344 0.429688 2.28125 0.759766 2.58594L3.29883 5.125L0.759766 7.68945C0.429688 7.99414 0.429688 8.50195 0.759766 8.80664L1.31836 9.36523C1.62305 9.69531 2.13086 9.69531 2.43555 9.36523L5 6.82617L7.53906 9.36523C7.84375 9.69531 8.35156 9.69531 8.65625 9.36523L9.21484 8.80664C9.54492 8.50195 9.54492 7.99414 9.21484 7.68945L6.67578 5.125Z" fill="#183358"/>
</svg>
