<svg width="13" height="14" viewBox="0 0 13 14" fill="none" xmlns="http://www.w3.org/2000/svg">
<path d="M10.9688 6.3125C11.3073 6.3125 11.5951 6.43099 11.832 6.66797C12.069 6.90495 12.1875 7.19271 12.1875 7.53125V12.4062C12.1875 12.7448 12.069 13.0326 11.832 13.2695C11.5951 13.5065 11.3073 13.625 10.9688 13.625H2.03125C1.69271 13.625 1.40495 13.5065 1.16797 13.2695C0.93099 13.0326 0.8125 12.7448 0.8125 12.4062V7.53125C0.8125 7.19271 0.93099 6.90495 1.16797 6.66797C1.40495 6.43099 1.69271 6.3125 2.03125 6.3125H2.64062V4.48438C2.64062 3.41797 3.01302 2.51237 3.75781 1.76758C4.51953 1.00586 5.43359 0.625 6.5 0.625C7.56641 0.625 8.47201 1.00586 9.2168 1.76758C9.97852 2.51237 10.3594 3.41797 10.3594 4.48438V6.3125H10.9688ZM8.32812 6.3125V4.48438C8.32812 3.97656 8.15039 3.54492 7.79492 3.18945C7.43945 2.83398 7.00781 2.65625 6.5 2.65625C5.99219 2.65625 5.56055 2.83398 5.20508 3.18945C4.84961 3.54492 4.67188 3.97656 4.67188 4.48438V6.3125H8.32812Z" fill="#0D2950"/>
</svg>
