<svg width="13" height="14" viewBox="0 0 13 14" fill="none" xmlns="http://www.w3.org/2000/svg">
<path d="M8.78516 6.18555C8.15885 6.81185 7.39714 7.125 6.5 7.125C5.60286 7.125 4.83268 6.81185 4.18945 6.18555C3.56315 5.54232 3.25 4.77214 3.25 3.875C3.25 2.97786 3.56315 2.21615 4.18945 1.58984C4.83268 0.946615 5.60286 0.625 6.5 0.625C7.39714 0.625 8.15885 0.946615 8.78516 1.58984C9.42839 2.21615 9.75 2.97786 9.75 3.875C9.75 4.77214 9.42839 5.54232 8.78516 6.18555ZM8.78516 7.9375C9.71615 7.9375 10.5117 8.27604 11.1719 8.95312C11.849 9.61328 12.1875 10.4089 12.1875 11.3398V12.4062C12.1875 12.7448 12.069 13.0326 11.832 13.2695C11.5951 13.5065 11.3073 13.625 10.9688 13.625H2.03125C1.69271 13.625 1.40495 13.5065 1.16797 13.2695C0.93099 13.0326 0.8125 12.7448 0.8125 12.4062V11.3398C0.8125 10.4089 1.14258 9.61328 1.80273 8.95312C2.47982 8.27604 3.28385 7.9375 4.21484 7.9375H4.64648C5.23893 8.20833 5.85677 8.34375 6.5 8.34375C7.14323 8.34375 7.76107 8.20833 8.35352 7.9375H8.78516Z" fill="#0D2950"/>
</svg>
