<svg width="36" height="36" viewBox="0 0 36 36" fill="none" xmlns="http://www.w3.org/2000/svg">
<path opacity="0.5" d="M18 0C8.05898 0 0 8.05898 0 18C0 27.941 8.05898 36 18 36C27.941 36 36 27.941 36 18C35.9889 8.06367 27.9363 0.0111329 18 0ZM18.6425 5.18936L24.9 2.68799C25.6102 3.00938 26.2972 3.37969 26.9561 3.79629L26.9725 3.80654C27.6199 4.2167 28.2387 4.67051 28.8246 5.16475L28.875 5.20869C29.1378 5.43252 29.3933 5.66426 29.6417 5.90332C29.673 5.93408 29.7059 5.96338 29.7372 5.99473C29.9977 6.24902 30.2499 6.51123 30.4939 6.78105C30.5142 6.80391 30.5335 6.82793 30.5537 6.85078C30.7679 7.09072 30.9738 7.33916 31.1736 7.5917C31.2217 7.65176 31.2697 7.71182 31.3163 7.77188C31.5331 8.05254 31.7429 8.33818 31.9409 8.63291L30.6935 13.9356L24.5561 15.9817L18.6439 11.2512L18.6425 5.18936ZM4.68311 7.77539C4.72969 7.71533 4.77715 7.65527 4.8252 7.59551C5.02266 7.34502 5.22686 7.10068 5.43779 6.86221C5.46064 6.83701 5.48174 6.81123 5.5043 6.78604C5.74688 6.51563 5.99795 6.25371 6.25811 6C6.28799 5.9707 6.31787 5.93994 6.34922 5.91299C6.59561 5.67539 6.84902 5.44512 7.10947 5.22246L7.16953 5.17207C7.7502 4.68135 8.36309 4.23047 9.0041 3.82207L9.02754 3.80713C9.68262 3.39141 10.3652 3.02168 11.0713 2.7L17.3575 5.18936V11.2494L11.4451 15.9791L5.30771 13.9368L4.06025 8.63408C4.26006 8.33994 4.46748 8.05488 4.68311 7.77539ZM3.96006 27.2071C3.78369 26.9382 3.61494 26.6643 3.4541 26.3851L3.41514 26.3177C3.25518 26.0399 3.10371 25.7575 2.96104 25.4707L2.95605 25.4616C2.65547 24.8581 2.3915 24.237 2.16592 23.6016V23.5957C2.05928 23.2957 1.96201 22.9884 1.87207 22.6793L1.83955 22.5653C1.75723 22.275 1.68252 21.9814 1.61572 21.6847C1.60986 21.6557 1.60254 21.6281 1.59668 21.5994C1.44932 20.9291 1.34355 20.2506 1.27969 19.5671L4.94268 15.1717L11.0376 17.2031L12.8065 24.2783L9.9 28.1455L3.96006 27.2071ZM21.9955 34.3157C21.6955 34.3901 21.3876 34.4543 21.0797 34.512C21.0366 34.5205 20.9927 34.5275 20.9496 34.5354C20.6874 34.5823 20.4223 34.6225 20.1565 34.6553C20.0856 34.6644 20.0153 34.674 19.9447 34.6825C19.698 34.7112 19.449 34.7329 19.1994 34.7508C19.1209 34.7561 19.0433 34.764 18.9647 34.7689C18.6457 34.7886 18.324 34.8 18 34.8C17.7032 34.8 17.4082 34.7921 17.1149 34.7766C17.0795 34.7766 17.0455 34.7707 17.0101 34.7681C16.749 34.7531 16.4892 34.7335 16.2299 34.7083L16.2 34.7027C15.6319 34.6412 15.0671 34.551 14.5081 34.4329L10.9591 28.8762L13.8199 25.0614H22.1801L25.0878 28.9014L21.9955 34.3157ZM34.4077 21.6C34.4016 21.6287 34.3945 21.6565 34.3884 21.6853C34.3213 21.9817 34.2466 22.2753 34.1646 22.5659L34.1323 22.6799C34.0421 22.989 33.9451 23.2951 33.8382 23.5963V23.6021C33.6126 24.2376 33.3489 24.8587 33.048 25.4622L33.0431 25.4713C32.8995 25.7584 32.7483 26.0408 32.589 26.3183L32.55 26.3856C32.39 26.6657 32.2216 26.9391 32.0449 27.2065L26.1252 28.1399L23.1984 24.276L24.9665 17.2025L31.0614 15.1711L34.7244 19.5665C34.6608 20.2503 34.5551 20.9294 34.4077 21.6Z" fill="#183358"/>
</svg>
